<?xml version="1.0" encoding="UTF-8"?>
<svg width="264px" height="68px" viewBox="0 0 264 68" version="1.1" xmlns="http://www.w3.org/2000/svg" xmlns:xlink="http://www.w3.org/1999/xlink">
    <!-- Generator: Sketch 45 (43475) - http://www.bohemiancoding.com/sketch -->
    <title>logo_extrategy_2col_ist</title>
    <desc>Created with Sketch.</desc>
    <defs></defs>
    <g id="Page-1" stroke="none" stroke-width="1" fill="none" fill-rule="evenodd">
        <g id="logo_extrategy_2col_ist" transform="translate(0.000000, -8.000000)">
            <polyline id="Fill-1" fill="#007D9F" points="58.5628247 16.8627273 49.4836364 16.8627273 31.2796753 46.3348052 40.1809091 46.3348052 58.5628247 16.8627273"></polyline>
            <path d="M21.4255519,25.4098052 C20.7768506,23.9940584 19.2436364,21.6368182 15.4136688,21.6368182 C13.8804545,21.6368182 13.0546753,21.930487 12.4655844,22.1680519 C9.1650974,23.5233117 8.39892857,26.8237987 8.22272727,27.8257792 L22.0146429,27.8257792 C22.0146429,27.8257792 21.8384416,26.4117857 21.4255519,25.4098052 M27.3208442,42.7985065 C25.6692857,44.3317208 21.720974,47.2184416 15.6494805,47.2184416 C13.762987,47.2184416 9.10724026,46.9835065 5.09668831,43.2701299 C1.73834416,40.0871104 0.500551948,36.0204545 0.500551948,31.4225649 C0.500551948,28.9452273 0.853831169,26.5897403 1.79795455,24.3482143 C3.09272727,21.4010065 6.74737013,15.9773377 15.2962013,15.9773377 C21.8980519,15.9773377 25.3756169,19.3970455 26.9088312,21.6368182 C28.2632143,23.699513 29.6202273,27.2945455 29.7964286,33.0127597 L7.98691558,33.0127597 C8.10350649,33.8981494 8.39892857,35.7250325 9.87340909,37.4923052 C10.874513,38.7318506 12.6426623,40.3229221 16.2981818,40.3229221 C19.9519481,40.3229221 22.0742532,38.6126299 23.0166234,37.611526 C23.2524351,37.3765909 23.6074675,36.9032143 24.0186039,36.2562662 L30.0313636,39.7338312 C29.5606169,40.3825325 28.7357143,41.5011039 27.3208442,42.7985065" id="Fill-2" fill="#007D9F"></path>
            <path d="M75.1722078,46.5714935 C71.2826299,46.5714935 69.2769156,45.6273701 68.0987338,44.2133766 C67.5096429,43.5050649 67.2738312,42.7985065 67.215974,42.5030844 C66.9205519,41.5607143 66.8609416,39.4980195 66.8609416,36.9032143 L66.8609416,21.8717532 L62.558474,21.8717532 L62.558474,16.8627273 L66.8609416,16.8627273 L66.8609416,8.69785714 L73.9344156,8.69785714 L73.9344156,16.8627273 L80.2425974,16.8627273 L80.2425974,21.8717532 L73.9344156,21.8717532 L73.9344156,35.2551623 C73.9344156,36.4315909 73.7582143,38.6713636 74.6427273,39.615487 C75.4676299,40.5596104 77.1779221,40.5 77.3541234,40.5 C78.3561039,40.5 79.3580844,40.3807792 80.2425974,40.1449675 L80.2425974,46.0981169 C79.298474,46.216461 77.5881818,46.5714935 75.1722078,46.5714935" id="Fill-3" fill="#007D9F"></path>
            <path d="M93.6926299,28.8864935 C93.1631494,30.5371753 93.1631494,32.0125325 93.1631494,33.7210714 L93.1631494,46.3348052 L86.3237338,46.3348052 L86.3237338,16.8636039 L93.1631494,16.8636039 L93.1631494,21.0468506 C93.6338961,20.1640909 94.222987,19.2778247 94.9304221,18.6291234 C97.2876623,16.3323701 101.119383,16.2149026 101.945162,16.2149026 L102.534253,16.2149026 L102.534253,23.4637013 C101.060649,23.4637013 95.4011688,23.4637013 93.6926299,28.8864935" id="Fill-4" fill="#007D9F"></path>
            <path d="M124.518214,31.6575 C123.338279,32.2465909 121.806818,32.8374351 118.918344,33.3073052 C117.325519,33.6027273 115.617857,33.6623377 114.144253,34.5450974 C113.142273,35.1955519 112.433961,36.1975325 112.433961,37.4931818 C112.433961,39.2604545 113.731364,40.9707468 117.268539,40.9707468 C121.158117,40.9707468 123.4575,38.9667857 124.106201,37.6106494 C124.576071,36.6682792 124.518214,35.8425 124.518214,34.8983766 L124.518214,31.6575 Z M124.518214,46.3339286 L124.342013,44.0354221 C123.220812,44.9812987 122.219708,45.4511688 121.62974,45.6861039 C119.684513,46.5723701 117.85763,47.0422403 115.677468,47.0422403 C114.260844,47.0422403 108.956396,46.866039 106.245,42.503961 C105.773377,41.7377922 104.88974,40.1449675 104.947597,37.7886039 C104.947597,36.1379221 105.360487,32.8374351 108.956396,30.421461 C111.373247,28.7707792 113.671753,28.4157468 116.383149,27.884513 C120.745227,27.0017532 122.336299,26.648474 124.518214,25.8805519 C124.518214,25.1135065 124.458604,24.1711364 124.106201,23.4628247 C123.515357,22.3460065 122.04263,21.4597403 119.449578,21.4597403 C116.738182,21.4597403 115.028766,22.2863961 114.260844,23.2883766 C113.435942,24.2894805 113.495552,25.468539 113.495552,25.8805519 L106.302857,25.468539 C106.362468,24.1711364 106.598279,21.0468506 109.486753,18.6887338 C111.31539,17.1572727 114.084643,15.976461 119.212013,15.976461 C124.046591,15.976461 126.875455,16.9784416 128.704091,18.2775974 C129.941883,19.1603571 130.588831,20.1640909 130.824643,20.6357143 C131.591688,22.1671753 131.591688,24.2307468 131.591688,25.8805519 L131.591688,41.5615909 C131.591688,43.8013636 131.709156,44.4483117 132.889091,46.3339286 L124.518214,46.3339286 L124.518214,46.3339286 Z" id="Fill-5" fill="#007D9F"></path>
            <path d="M148.209838,46.5714935 C144.32026,46.5714935 142.314545,45.6273701 141.136364,44.2133766 C140.547273,43.5050649 140.311461,42.7985065 140.253604,42.5030844 C139.958182,41.5607143 139.898571,39.4980195 139.898571,36.9032143 L139.898571,21.8717532 L135.596104,21.8717532 L135.596104,16.8627273 L139.898571,16.8627273 L139.898571,8.69785714 L146.972045,8.69785714 L146.972045,16.8627273 L153.280227,16.8627273 L153.280227,21.8717532 L146.972045,21.8717532 L146.972045,35.2551623 C146.972045,36.4315909 146.795844,38.6713636 147.680357,39.615487 C148.50526,40.5596104 150.215552,40.5 150.391753,40.5 C151.393734,40.5 152.395714,40.3807792 153.280227,40.1449675 L153.280227,46.0981169 C152.336104,46.216461 150.626688,46.5714935 148.209838,46.5714935" id="Fill-6" fill="#007D9F"></path>
            <path d="M176.736916,25.4098052 C176.088214,23.9940584 174.555,21.6368182 170.724156,21.6368182 C169.190942,21.6368182 168.366039,21.930487 167.776948,22.1680519 C164.476461,23.5233117 163.710292,26.8237987 163.534091,27.8257792 L177.326006,27.8257792 C177.326006,27.8257792 177.149805,26.4117857 176.736916,25.4098052 M182.632208,42.7985065 C180.979773,44.3317208 177.032338,47.2184416 170.960844,47.2184416 C169.074351,47.2184416 164.418604,46.9835065 160.409805,43.2701299 C157.049708,40.0871104 155.811916,36.0204545 155.811916,31.4225649 C155.811916,28.9452273 156.164318,26.5897403 157.108442,24.3482143 C158.404091,21.4010065 162.05961,15.9773377 170.607565,15.9773377 C177.209416,15.9773377 180.686104,19.3970455 182.219318,21.6368182 C183.574578,23.699513 184.929838,27.2945455 185.107792,33.0127597 L163.297403,33.0127597 C163.41487,33.8981494 163.710292,35.7250325 165.183896,37.4923052 C166.185877,38.7318506 167.954903,40.3229221 171.609545,40.3229221 C175.263312,40.3229221 177.385617,38.6126299 178.327987,37.611526 C178.563799,37.3765909 178.918831,36.9032143 179.329968,36.2562662 L185.343604,39.7338312 C184.871981,40.3825325 184.046201,41.5011039 182.632208,42.7985065" id="Fill-7" fill="#007D9F"></path>
            <path d="M210.272143,27.3541558 C209.800519,25.7630844 208.209448,22.2863961 203.434481,22.2863961 C202.433377,22.2863961 200.074383,22.4608442 198.18789,24.523539 C196.125195,26.7650649 196.184805,29.476461 196.184805,30.4205844 C196.184805,31.3629545 196.184805,33.8981494 198.071299,36.0187013 C198.366721,36.3141234 199.013669,36.9628247 199.957792,37.4353247 C200.546883,37.7289935 201.725065,38.2006169 203.494091,38.2006169 C206.322955,38.2006169 207.915779,37.0802922 208.740682,36.1975325 C210.744643,34.1935714 210.744643,31.5978896 210.744643,30.6555195 C210.744643,29.0048377 210.507955,28.0028571 210.272143,27.3541558 M215.695812,51.6997403 C213.868929,54.1735714 210.036331,56.1801623 203.375747,56.1801623 C196.773896,56.1801623 193.532143,54.351526 191.70526,51.7593506 C190.996948,50.6977597 190.467468,49.4582143 189.876623,46.9247727 L197.658409,46.9843831 C197.83461,47.573474 197.953831,47.9267532 198.366721,48.4562338 C199.898182,50.6977597 203.140812,50.6381494 203.671169,50.6381494 C207.207468,50.6381494 209.034351,49.2837662 209.800519,47.8671429 C210.625422,46.3356818 210.567565,44.8024675 210.567565,41.5019805 C207.267078,44.4474351 203.140812,44.6262662 201.667208,44.6262662 C199.898182,44.6262662 197.953831,44.3317208 196.301396,43.5646753 C193.178864,42.2094156 188.934253,38.6713636 188.934253,30.5959091 C188.934253,29.653539 188.934253,26.8825325 189.936234,24.2894805 C191.939318,19.1603571 196.716039,15.9782143 202.256299,15.9782143 C203.258279,15.9782143 206.087143,16.0956818 208.50487,17.8647078 C209.565584,18.63 210.331753,19.6337338 210.567565,19.987013 L210.567565,16.8627273 L217.582305,16.8627273 L217.582305,41.0890909 C217.582305,44.5070455 217.935584,48.6937987 215.695812,51.6997403" id="Fill-8" fill="#007D9F"></path>
            <path d="M241.508864,42.5626948 C240.448149,46.216461 238.916688,52.4667857 236.145682,54.7048052 C234.317922,56.1801623 232.432305,56.4738312 230.132922,56.4738312 C227.891396,56.4738312 227.068247,56.2976299 225.947045,56.0609416 L225.947045,49.9298377 C228.775909,50.2848701 230.368734,49.9298377 231.428571,49.0470779 C232.313084,48.2221753 232.548896,47.3376623 232.668117,46.9247727 L221.997857,16.8627273 L229.601688,16.8627273 L236.204416,38.8493182 L241.744675,16.8627273 L248.995227,16.8627273 L241.508864,42.5626948" id="Fill-9" fill="#007D9F"></path>
            <polyline id="Fill-10" fill="#D2DB2F" points="37.3424026 8.69873377 28.2640909 8.69873377 57.6397403 56.0609416 66.5400974 56.0609416 37.3424026 8.69873377"></polyline>
            <path d="M77.3304545,69.1682143 L78.6541558,69.1682143 C78.442013,70.1447727 77.9887987,70.9258442 77.2962662,71.5079221 C76.6063636,72.0908766 75.788474,72.3819156 74.8469805,72.3819156 C73.8002922,72.3819156 73.0113312,72.0847403 72.4783442,71.489513 C71.9444805,70.8942857 71.6788636,70.0141558 71.6788636,68.8491234 C71.6788636,68.1688636 71.7875649,67.5280519 72.0049675,66.9266883 C72.2241234,66.3226948 72.5467208,65.7791883 72.9727597,65.2926623 C73.3742532,64.8412013 73.8362338,64.4993182 74.3560714,64.2643831 C74.8759091,64.0285714 75.4422078,63.9111039 76.051461,63.9111039 C77.0043506,63.9111039 77.7433442,64.1635714 78.2675649,64.6693831 C78.7926623,65.1743182 79.0687987,65.8966558 79.0942208,66.8328896 L77.7398377,66.8328896 C77.7398377,66.2832468 77.5794156,65.8510714 77.2594481,65.5389935 C76.9403571,65.226039 76.5011688,65.0708766 75.9410065,65.0708766 C75.1713312,65.0708766 74.5042208,65.4451948 73.9396753,66.1973377 C73.3742532,66.9486039 73.0919805,67.8576623 73.0919805,68.9227597 C73.0919805,69.6363312 73.2524026,70.1833442 73.575,70.5629221 C73.8975974,70.9425 74.3604545,71.130974 74.9662013,71.130974 C75.4956818,71.130974 75.9725649,70.9574026 76.3933442,70.6076299 C76.815,70.2587338 77.1279545,69.7792208 77.3304545,69.1682143" id="Fill-11" fill="#828889"></path>
            <path d="M84.8553896,65.0708766 C84.4337338,65.0708766 84.0541558,65.1629221 83.7166558,65.3496429 C83.3809091,65.535487 83.0846104,65.8160065 82.8321429,66.1938312 C82.5796753,66.5751623 82.3789286,67.0248701 82.2307792,67.5438312 C82.0817532,68.0619156 82.0063636,68.5712338 82.0063636,69.0717857 C82.0063636,69.7450325 82.1737987,70.2657468 82.5095455,70.6295455 C82.8444156,70.9942208 83.3204221,71.1765584 83.9410714,71.1765584 C84.7984091,71.1765584 85.5005844,70.7987338 86.0458442,70.0430844 C86.5911039,69.2856818 86.8637338,68.3126299 86.8637338,67.1239286 C86.8637338,66.4533117 86.6927922,65.9448701 86.3500325,65.5942208 C86.009026,65.2444481 85.5093506,65.0708766 84.8553896,65.0708766 Z M80.609026,68.9683442 C80.609026,67.4850974 81.0184091,66.2692208 81.8389286,65.3198377 C82.6603247,64.3704545 83.7113961,63.8962013 84.9974026,63.8962013 C86.0125325,63.8962013 86.8146429,64.1986364 87.4037338,64.8035065 C87.9901948,65.4083766 88.2847403,66.2324026 88.2847403,67.2790909 C88.2847403,68.7570779 87.8736039,69.9694481 87.053961,70.9153247 C86.2334416,71.8638312 85.1797403,72.3372078 83.895487,72.3372078 C82.8540584,72.3372078 82.0466883,72.0426623 81.4716234,71.4526948 C80.8965584,70.8618506 80.609026,70.0325649 80.609026,68.9683442 L80.609026,68.9683442 Z" id="Fill-12" fill="#828889"></path>
            <path d="M96.0542532,67.2492857 C96.0542532,66.5856818 95.8815584,66.0640909 95.5405519,65.684513 C95.1977922,65.3049351 94.7296753,65.1138312 94.1344481,65.1138312 C93.3253247,65.1138312 92.6415584,65.4986688 92.0813961,66.2674675 C91.5212338,67.0371429 91.2407143,67.993539 91.2407143,69.1384091 C91.2407143,69.8037662 91.4046429,70.3253571 91.7316234,70.7084416 C92.0594805,71.0897727 92.5056818,71.28 93.0711039,71.28 C93.9240584,71.28 94.6341234,70.8986688 95.2012987,70.1351299 C95.7693506,69.3724675 96.0542532,68.4090584 96.0542532,67.2492857 Z M95.2644156,72.1206818 L95.4283442,71.130974 C95.0505195,71.5578896 94.6507792,71.873474 94.2264935,72.075974 C93.8030844,72.2802273 93.3402273,72.3819156 92.8405519,72.3819156 C91.8973052,72.3819156 91.1653247,72.0908766 90.6419805,71.5079221 C90.1186364,70.9258442 89.8574026,70.1035714 89.8574026,69.0411039 C89.8574026,68.3678571 89.9599675,67.7209091 90.1668506,67.1002597 C90.3728571,66.4813636 90.6638961,65.9352273 91.0399675,65.4653571 C91.4274351,64.9937338 91.8788961,64.6255519 92.3969805,64.3634416 C92.9159416,64.1022078 93.4541883,63.9698377 94.0161039,63.9698377 C94.5710065,63.9698377 95.061039,64.0969481 95.4870779,64.348539 C95.9131169,64.6027597 96.2707792,64.9788312 96.5583117,65.4785065 L97.4428247,61.1655195 L98.7375974,61.1655195 L96.4697727,72.1206818 L95.2644156,72.1206818 L95.2644156,72.1206818 Z" id="Fill-13" fill="#828889"></path>
            <path d="M101.0475,62.7723701 L101.38237,61.1655195 L102.706071,61.1655195 L102.370325,62.7723701 L101.0475,62.7723701 Z M99.0531818,72.1206818 L100.726656,64.1565584 L102.066136,64.1565584 L100.37776,72.1206818 L99.0531818,72.1206818 L99.0531818,72.1206818 Z" id="Fill-14" fill="#828889"></path>
            <path d="M103.030422,72.1206818 L104.719675,64.1565584 L105.938182,64.1565584 L105.676948,65.3452597 C106.118766,64.8955519 106.578117,64.5589286 107.058506,64.341526 C107.536266,64.1232468 108.044708,64.0145455 108.586461,64.0145455 C109.29039,64.0145455 109.823377,64.1618182 110.188052,64.4537338 C110.552727,64.746526 110.735065,65.1743182 110.735065,65.7397403 C110.735065,65.8686039 110.724545,66.0167532 110.701753,66.1824351 C110.679838,66.3481169 110.643019,66.533961 110.594805,66.7355844 L109.470974,72.1206818 L108.118344,72.1206818 L109.225519,66.9301948 C109.264968,66.7355844 109.293896,66.5707792 109.310552,66.4313961 C109.328961,66.2928896 109.336851,66.164026 109.336851,66.0456818 C109.336851,65.7581494 109.233409,65.535487 109.024773,65.3785714 C108.817013,65.2225325 108.524221,65.144513 108.146396,65.144513 C107.38461,65.144513 106.754318,65.3987338 106.257273,65.9036688 C105.762857,66.4094805 105.413084,67.1502273 105.208831,68.1267857 L104.368149,72.1206818 L103.030422,72.1206818" id="Fill-15" fill="#828889"></path>
            <path d="M116.518149,65.055974 C115.690617,65.055974 115.018247,65.4171429 114.501916,66.1377273 C113.986461,66.8600649 113.72961,67.8024351 113.72961,68.9683442 C113.72961,69.6468506 113.894416,70.1719481 114.227532,70.544513 C114.560649,70.9153247 115.028766,71.1029221 115.633636,71.1029221 C116.486591,71.1029221 117.173864,70.7364935 117.696331,70.004513 C118.219675,69.2742857 118.480909,68.3073701 118.480909,67.109026 C118.480909,66.4682143 118.309091,65.9667857 117.961071,65.6021104 C117.613052,65.2383117 117.133539,65.055974 116.518149,65.055974 Z M111.90711,72.9105195 L113.230812,72.9105195 L113.230812,73.0358766 C113.230812,73.4084416 113.389481,73.7047403 113.705942,73.9247727 C114.023279,74.1456818 114.452825,74.2561364 114.992825,74.2561364 C115.836136,74.2561364 116.452403,74.0457468 116.8425,73.6240909 C117.229968,73.2015584 117.534156,72.3968182 117.751558,71.2063636 C117.456136,71.5473701 117.10987,71.8068506 116.718896,71.9786688 C116.327045,72.1531169 115.895747,72.2399026 115.425,72.2399026 C114.448442,72.2399026 113.687532,71.9418506 113.145779,71.3466234 C112.602273,70.7522727 112.329643,69.9194805 112.329643,68.8491234 C112.329643,67.4263636 112.725877,66.2446753 113.516591,65.3049351 C114.308182,64.3651948 115.29263,63.8962013 116.472565,63.8962013 C117.078312,63.8962013 117.58763,64.0285714 118.001396,64.2906818 C118.416039,64.5527922 118.73513,64.9437662 118.956916,65.4653571 L119.247955,64.1565584 L120.542727,64.1565584 L118.845584,72.2548052 C118.617662,73.3453247 118.188117,74.1456818 117.559578,74.6576299 C116.929286,75.1669481 116.059675,75.4229221 114.948117,75.4229221 C113.991721,75.4229221 113.245714,75.2055195 112.709221,74.7698377 C112.174481,74.3332792 111.90711,73.7249026 111.90711,72.9473377 L111.90711,72.9105195 L111.90711,72.9105195 Z" id="Fill-16" fill="#828889"></path>
            <path d="M129.037208,72.1206818 C128.848734,72.1759091 128.674286,72.217987 128.515617,72.2477922 C128.356948,72.2767208 128.221071,72.2916234 128.107987,72.2916234 C127.546071,72.2916234 127.127922,72.1864286 126.850032,71.9725325 C126.573019,71.7603896 126.434513,71.4369156 126.434513,71.0056169 C126.434513,70.9056818 126.444156,70.7803247 126.467825,70.626039 C126.48974,70.4726299 126.523052,70.2736364 126.56776,70.0308117 L127.586396,65.2497078 L126.434513,65.2497078 L126.678214,64.1565584 L127.816948,64.1565584 L128.278052,61.9921753 L129.617532,61.9921753 L129.156429,64.1565584 L130.531851,64.1565584 L130.301299,65.2497078 L128.918864,65.2497078 L127.877435,70.1719481 C127.846753,70.2973052 127.824838,70.4077597 127.809935,70.5024351 C127.795032,70.5997403 127.787143,70.6786364 127.787143,70.7382468 C127.787143,70.882013 127.840617,70.9924675 127.947565,71.0731169 C128.054513,71.1511364 128.202662,71.191461 128.397273,71.191461 C128.526136,71.191461 128.659383,71.1835714 128.79789,71.1695455 C128.937273,71.1546429 129.088929,71.130974 129.252857,71.1029221 L129.037208,72.1206818" id="Fill-17" fill="#828889"></path>
            <path d="M135.191981,65.0708766 C134.770325,65.0708766 134.390747,65.1629221 134.053247,65.3496429 C133.716623,65.535487 133.421201,65.8160065 133.168734,66.1938312 C132.916266,66.5751623 132.715519,67.0248701 132.566494,67.5438312 C132.418344,68.0619156 132.342955,68.5712338 132.342955,69.0717857 C132.342955,69.7450325 132.509513,70.2657468 132.846136,70.6295455 C133.18013,70.9942208 133.657013,71.1765584 134.276786,71.1765584 C135.135,71.1765584 135.837175,70.7987338 136.382435,70.0430844 C136.926818,69.2856818 137.199448,68.3126299 137.199448,67.1239286 C137.199448,66.4533117 137.029383,65.9448701 136.686623,65.5942208 C136.345617,65.2444481 135.845065,65.0708766 135.191981,65.0708766 Z M130.94474,68.9683442 C130.94474,67.4850974 131.355,66.2692208 132.175519,65.3198377 C132.996039,64.3704545 134.047987,63.8962013 135.333994,63.8962013 C136.348247,63.8962013 137.151234,64.1986364 137.739448,64.8035065 C138.326786,65.4083766 138.620455,66.2324026 138.620455,67.2790909 C138.620455,68.7570779 138.209318,69.9694481 137.390552,70.9153247 C136.569156,71.8638312 135.516331,72.3372078 134.232078,72.3372078 C133.190649,72.3372078 132.382403,72.0426623 131.807338,71.4526948 C131.232273,70.8618506 130.94474,70.0325649 130.94474,68.9683442 L130.94474,68.9683442 Z" id="Fill-18" fill="#828889"></path>
            <path d="M144.506104,69.3321429 L145.763182,69.3321429 C145.763182,69.3628247 145.761429,69.3961364 145.759675,69.436461 C145.756169,69.4759091 145.754416,69.5328896 145.754416,69.606526 C145.754416,70.1631818 145.93237,70.5830844 146.286526,70.8671104 C146.640682,71.1528896 147.164026,71.2949026 147.853052,71.2949026 C148.357987,71.2949026 148.759481,71.1862013 149.053149,70.9679221 C149.349448,70.7505195 149.496721,70.455974 149.496721,70.0834091 C149.496721,69.8256818 149.421331,69.6117857 149.272305,69.4390909 C149.123279,69.269026 148.742825,69.0402273 148.127435,68.7518182 C148.033636,68.7071104 147.896883,68.6448701 147.718929,68.5668506 C146.246201,67.8813312 145.508961,67.1055195 145.508961,66.2376623 C145.508961,65.5389935 145.774578,64.9753247 146.304935,64.5492857 C146.836169,64.1232468 147.545357,63.9111039 148.433377,63.9111039 C149.354708,63.9111039 150.073539,64.1416558 150.586364,64.6062662 C151.100065,65.0691234 151.356039,65.7143182 151.356039,66.5436039 L151.356039,66.7145455 L150.121753,66.7145455 L150.121753,66.668961 C150.121753,66.128961 149.976234,65.7230844 149.685195,65.4504545 C149.395909,65.1778247 148.962857,65.0401948 148.387792,65.0401948 C147.901266,65.0401948 147.519058,65.1357468 147.239416,65.3268506 C146.958896,65.5170779 146.81776,65.7765584 146.81776,66.103539 C146.81776,66.4997727 147.259578,66.899513 148.142338,67.3010065 C148.182662,67.3211688 148.207208,67.3343182 148.217727,67.3395779 C149.3775,67.8646753 150.105097,68.2942208 150.399643,68.6255844 C150.695065,68.9578247 150.842338,69.375974 150.842338,69.8826623 C150.842338,70.6418182 150.553052,71.2501948 149.972727,71.7077922 C149.393279,72.1662662 148.613961,72.3968182 147.637403,72.3968182 C146.664351,72.3968182 145.897305,72.1496104 145.33539,71.6560714 C144.771721,71.1634091 144.491201,70.4892857 144.491201,69.6363312 C144.491201,69.5583117 144.492078,69.4960714 144.493831,69.4513636 C144.497338,69.4057792 144.500844,69.3672078 144.506104,69.3321429" id="Fill-19" fill="#828889"></path>
            <path d="M152.594708,72.1206818 L154.923896,61.1655195 L156.247597,61.1655195 L155.385,65.2628571 C155.790877,64.846461 156.227435,64.5352597 156.692045,64.3266234 C157.159286,64.1188636 157.655455,64.0145455 158.180552,64.0145455 C158.888864,64.0145455 159.422727,64.1618182 159.78039,64.4537338 C160.136299,64.746526 160.31513,65.1795779 160.31513,65.7546429 C160.31513,65.8984091 160.305487,66.0535714 160.285325,66.2192532 C160.265162,66.3849351 160.235357,66.555 160.196786,66.7294481 L159.051039,72.1206818 L157.697532,72.1206818 L158.805584,66.9301948 C158.851169,66.7312013 158.882727,66.5567532 158.90289,66.4050974 C158.921299,66.2543182 158.930942,66.1140584 158.930942,65.9851948 C158.930942,65.7327273 158.82224,65.528474 158.604838,65.3750649 C158.385682,65.2207792 158.093766,65.144513 157.727338,65.144513 C156.968182,65.144513 156.339643,65.3987338 155.841721,65.9036688 C155.342922,66.4094805 154.992273,67.1502273 154.789773,68.1267857 L153.949091,72.1206818 L152.594708,72.1206818" id="Fill-20" fill="#828889"></path>
            <path d="M166.916104,68.1118831 C166.51461,68.2609091 165.983377,68.3608442 165.321526,68.4090584 C164.658799,68.4599026 164.225747,68.5098701 164.02237,68.5580844 C163.635779,68.6483766 163.348247,68.8061688 163.159773,69.031461 C162.972175,69.2567532 162.876623,69.5548052 162.876623,69.9273701 C162.876623,70.3192208 162.997597,70.6295455 163.234286,70.8600974 C163.471851,71.091526 163.794448,71.2063636 164.201201,71.2063636 C164.97,71.2063636 165.583636,70.9442532 166.04211,70.4174026 C166.499708,69.8923052 166.7925,69.1235065 166.916104,68.1118831 Z M166.499708,71.2212662 C166.147305,71.6025974 165.762468,71.8883766 165.342565,72.0812338 C164.923539,72.271461 164.466818,72.367013 163.970649,72.367013 C163.197468,72.367013 162.594351,72.1513636 162.159545,71.7200649 C161.726494,71.2887662 161.509091,70.6900325 161.509091,69.9273701 C161.509091,69.0752922 161.778214,68.4441234 162.319968,68.0382468 C162.859968,67.6323701 163.772532,67.3877922 165.056786,67.3097727 C165.082208,67.3097727 165.115519,67.3062662 165.160227,67.3010065 C166.603149,67.2072078 167.325487,66.8074675 167.325487,66.103539 C167.325487,65.7581494 167.20539,65.5039286 166.964318,65.3417532 C166.724123,65.1813312 166.341039,65.1006818 165.815942,65.1006818 C165.076948,65.1006818 164.564123,65.1962338 164.279221,65.3899675 C163.993442,65.5837013 163.790065,65.9431169 163.665584,66.4682143 L162.341883,66.4682143 C162.48039,65.631039 162.838052,65.0025 163.416623,64.5825974 C163.993442,64.1653247 164.794675,63.9566883 165.815942,63.9566883 C166.742532,63.9566883 167.456104,64.1188636 167.957532,64.4423377 C168.458084,64.7666883 168.708799,65.2242857 168.708799,65.8142532 C168.708799,65.8782468 168.698279,65.9755519 168.678117,66.103539 C168.657955,66.2324026 168.62026,66.4515584 168.559773,66.7592532 L167.830422,70.1351299 C167.800617,70.2499675 167.780455,70.3604221 167.767305,70.4691234 C167.755032,70.5795779 167.748896,70.6882792 167.748896,70.7969805 C167.748896,70.9407468 167.795357,71.0494481 167.885649,71.1248377 C167.977695,71.198474 168.116201,71.2370455 168.298539,71.2370455 C168.353766,71.2370455 168.408994,71.2317857 168.462468,71.2247727 C168.517695,71.2186364 168.574675,71.2063636 168.635162,71.191461 L168.432662,72.1206818 C168.313442,72.1513636 168.188084,72.1732792 168.054838,72.1881818 C167.918961,72.2030844 167.763799,72.2100974 167.584968,72.2100974 C167.229058,72.2100974 166.958182,72.1276948 166.774091,71.9602597 C166.591753,71.7954545 166.499708,71.5473701 166.499708,71.2212662 L166.499708,71.2212662 Z" id="Fill-21" fill="#828889"></path>
            <path d="M170.109643,72.1206818 L171.783117,64.1565584 L173.06211,64.1565584 L172.728117,65.6354221 C173.174318,65.0051299 173.565292,64.5694481 173.902792,64.3231169 C174.241169,64.078539 174.600584,63.9566883 174.981039,63.9566883 C175.071331,63.9566883 175.166883,63.9610714 175.267695,63.9698377 C175.369383,63.9794805 175.478084,63.9943831 175.592045,64.0145455 L175.257175,65.5240909 C175.247532,65.5240909 175.233506,65.5240909 175.220357,65.5240909 C175.041526,65.5039286 174.908279,65.4934091 174.817987,65.4934091 C174.158766,65.4934091 173.618766,65.7248377 173.19711,66.1859416 C172.774578,66.6470455 172.463377,67.350974 172.26,68.2977273 L171.433344,72.1206818 L170.109643,72.1206818" id="Fill-22" fill="#828889"></path>
            <path d="M177.501331,67.4281169 L181.866039,67.4281169 C181.876558,67.3825325 181.882695,67.3378247 181.886201,67.2913636 C181.887955,67.244026 181.889708,67.1721429 181.889708,67.0783442 C181.889708,66.4533117 181.727532,65.9632792 181.401429,65.6056169 C181.077078,65.2497078 180.634383,65.0708766 180.074221,65.0708766 C179.435162,65.0708766 178.890779,65.2742532 178.441948,65.684513 C177.99224,66.0921429 177.680162,66.6742208 177.501331,67.4281169 Z M182.864513,69.517987 C182.675162,70.4103896 182.250877,71.1116883 181.589026,71.6192532 C180.927175,72.1276948 180.112792,72.3819156 179.144123,72.3819156 C178.098312,72.3819156 177.297078,72.082987 176.738669,71.4860065 C176.182013,70.8872727 175.90237,70.0299351 175.90237,68.9078571 C175.90237,67.4351299 176.290714,66.2324026 177.070032,65.2961688 C177.848474,64.3616883 178.850455,63.8962013 180.074221,63.8962013 C181.060422,63.8962013 181.846753,64.1872403 182.427955,64.7693182 C183.011786,65.3513961 183.302825,66.135974 183.302825,67.1239286 C183.302825,67.3106494 183.292305,67.5184091 183.272143,67.7437013 C183.251981,67.9698701 183.223929,68.2275974 183.183604,68.5133766 L177.285682,68.5133766 C177.285682,68.5230195 177.285682,68.5361688 177.285682,68.5519481 C177.265519,68.7693506 177.255,68.9227597 177.255,69.0130519 C177.255,69.7318831 177.432078,70.2788961 177.78711,70.6567208 C178.141266,71.0327922 178.656721,71.2212662 179.329968,71.2212662 C179.866461,71.2212662 180.328442,71.0696104 180.717662,70.7636688 C181.10776,70.4594805 181.368117,70.0430844 181.50224,69.517987 L182.864513,69.517987 L182.864513,69.517987 Z" id="Fill-23" fill="#828889"></path>
            <path d="M257.977987,19.2129545 L257.024221,19.2129545 L257.024221,21.255487 L258.007792,21.255487 C258.564448,21.255487 258.962435,21.1774675 259.204383,21.0231818 C259.446331,20.8671429 259.565552,20.6190584 259.565552,20.2745455 C259.565552,19.9019805 259.442825,19.6319805 259.191234,19.4645455 C258.938766,19.2971104 258.534643,19.2129545 257.977987,19.2129545 Z M258.183994,18.4625649 C259.042208,18.4625649 259.684773,18.6037013 260.115195,18.8868506 C260.545617,19.1682468 260.761266,19.589026 260.761266,20.1483117 C260.761266,20.5857468 260.638539,20.9504221 260.393084,21.2405844 C260.145,21.5298701 259.800487,21.7192208 259.353409,21.8068831 L260.731461,24.6225974 L259.426169,24.6225974 L258.170844,21.9918506 L257.024221,21.9918506 L257.024221,24.6225974 L255.861818,24.6225974 L255.861818,18.4625649 L258.183994,18.4625649 Z M262.778377,21.7008117 C262.778377,21.0433442 262.666169,20.4270779 262.43737,19.852013 C262.205065,19.2778247 261.874578,18.772013 261.433636,18.3345779 C260.983052,17.8796104 260.469351,17.5315909 259.896039,17.2931494 C259.320097,17.056461 258.710844,16.9372403 258.061266,16.9372403 C257.418701,16.9372403 256.815584,17.0529545 256.249286,17.2835065 C255.682987,17.5131818 255.189448,17.8445455 254.765162,18.2767208 C254.304935,18.7422078 253.946396,19.2673052 253.698312,19.852013 C253.450227,20.4367208 253.3275,21.0380844 253.3275,21.6561039 C253.3275,22.2706169 253.446721,22.8597078 253.685162,23.4268831 C253.923604,23.9931818 254.26461,24.5033766 254.715195,24.9557143 C255.156136,25.4062987 255.666331,25.7543182 256.238766,25.9971429 C256.812078,26.2390909 257.405552,26.3618182 258.014805,26.3618182 C258.653864,26.3618182 259.263994,26.2425974 259.836429,26.0076623 C260.40974,25.7718506 260.933084,25.4290909 261.407338,24.9767532 C261.847403,24.5445779 262.189286,24.0475325 262.424221,23.4864935 C262.662662,22.9228247 262.778377,22.328474 262.778377,21.7008117 Z M258.037597,16.2149026 C258.780097,16.2149026 259.482273,16.3525325 260.145,16.6269156 C260.811234,16.9021753 261.400325,17.3027922 261.917532,17.8296429 C262.424221,18.3398377 262.811688,18.9262987 263.079935,19.5837662 C263.351688,20.242987 263.487565,20.9302597 263.487565,21.6490909 C263.487565,22.3915909 263.351688,23.0885065 263.079935,23.7398377 C262.811688,24.3902922 262.417208,24.9671104 261.900877,25.4694156 C261.367013,25.9892532 260.764773,26.3881169 260.098539,26.6668831 C259.432305,26.9447727 258.746786,27.0824026 258.037597,27.0824026 C257.316136,27.0824026 256.62711,26.9447727 255.970519,26.6668831 C255.314805,26.3881169 254.724838,25.9839935 254.205,25.454513 C253.688669,24.9320455 253.294188,24.3455844 253.022435,23.6951299 C252.754188,23.0437987 252.618312,22.3617857 252.618312,21.6490909 C252.618312,20.9302597 252.761201,20.2368506 253.042597,19.5653571 C253.323994,18.8947403 253.731623,18.2916234 254.261104,17.7551299 C254.758149,17.2501948 255.327955,16.8653571 255.970519,16.6058766 C256.610455,16.3455195 257.299481,16.2149026 258.037597,16.2149026 L258.037597,16.2149026 Z" id="Fill-24" fill="#828889"></path>
        </g>
    </g>
</svg>